<svg xmlns="http://www.w3.org/2000/svg" version="1.1" xmlns:xlink="http://www.w3.org/1999/xlink" xmlns:svgjs="http://svgjs.com/svgjs" width="37.221199mm" height="35.099442mm"><svg width="37.221199mm" height="35.099442mm" viewBox="0 0 37.221199 35.099442" version="1.1" id="SvgjsSvg1019" inkscape:version="1.1.2 (1:1.1+202202050950+0a00cf5339)" sodipodi:docname="logo_symbol_only.svg" xmlns:inkscape="http://www.inkscape.org/namespaces/inkscape" xmlns:sodipodi="http://sodipodi.sourceforge.net/DTD/sodipodi-0.dtd" xmlns="http://www.w3.org/2000/svg" xmlns:svg="http://www.w3.org/2000/svg">
  <sodipodi:namedview id="SvgjsSodipodi:namedview1018" pagecolor="#ffffff" bordercolor="#666666" borderopacity="1.0" inkscape:pageshadow="2" inkscape:pageopacity="0.0" inkscape:pagecheckerboard="0" inkscape:document-units="mm" showgrid="false" showguides="true" inkscape:guide-bbox="true" inkscape:zoom="1.0973349" inkscape:cx="43.742343" inkscape:cy="56.956175" inkscape:window-width="1916" inkscape:window-height="1076" inkscape:window-x="0" inkscape:window-y="0" inkscape:window-maximized="1" inkscape:current-layer="layer1" fit-margin-top="0" fit-margin-left="0" fit-margin-right="0" fit-margin-bottom="0">
    <inkscape:grid type="xygrid" id="SvgjsInkscape:grid1017" originx="461.53406" originy="-851.65943"></inkscape:grid>
  </sodipodi:namedview>
  <defs id="SvgjsDefs1016">
    <marker style="overflow:visible" id="SvgjsMarker1015" refX="0" refY="0" orient="auto" inkscape:stockid="Arrow2Send" inkscape:isstock="true">
      <path transform="matrix(-0.3,0,0,-0.3,0.69,0)" d="M 8.7185878,4.0337352 -2.2072895,0.01601326 8.7185884,-4.0017078 c -1.7454984,2.3720609 -1.7354408,5.6174519 -6e-7,8.035443 z" style="fill:context-stroke;fill-rule:evenodd;stroke:context-stroke;stroke-width:0.625;stroke-linejoin:round" id="SvgjsPath1014"></path>
    </marker>
    <marker style="overflow:visible" id="SvgjsMarker1013" refX="0" refY="0" orient="auto" inkscape:stockid="Arrow1Send" inkscape:isstock="true">
      <path transform="matrix(-0.2,0,0,-0.2,-1.2,0)" style="fill:context-stroke;fill-rule:evenodd;stroke:context-stroke;stroke-width:1pt" d="M 0,0 5,-5 -12.5,0 5,5 Z" id="SvgjsPath1012"></path>
    </marker>
    <marker style="overflow:visible" id="SvgjsMarker1011" refX="0" refY="0" orient="auto" inkscape:stockid="Arrow1Send" inkscape:isstock="true">
      <path transform="matrix(-0.2,0,0,-0.2,-1.2,0)" style="fill:context-stroke;fill-rule:evenodd;stroke:context-stroke;stroke-width:1pt" d="M 0,0 5,-5 -12.5,0 5,5 Z" id="SvgjsPath1010"></path>
    </marker>
    <marker style="overflow:visible" id="SvgjsMarker1009" refX="0" refY="0" orient="auto" inkscape:stockid="Arrow1Lend" inkscape:isstock="true">
      <path transform="matrix(-0.8,0,0,-0.8,-10,0)" style="fill:context-stroke;fill-rule:evenodd;stroke:context-stroke;stroke-width:1pt" d="M 0,0 5,-5 -12.5,0 5,5 Z" id="SvgjsPath1008"></path>
    </marker>
    <marker style="overflow:visible" id="SvgjsMarker1007" refX="0" refY="0" orient="auto" inkscape:stockid="Arrow1Lstart" inkscape:isstock="true">
      <path transform="matrix(0.8,0,0,0.8,10,0)" style="fill:context-stroke;fill-rule:evenodd;stroke:context-stroke;stroke-width:1pt" d="M 0,0 5,-5 -12.5,0 5,5 Z" id="SvgjsPath1006"></path>
    </marker>
  </defs>
  <g inkscape:label="Layer 1" inkscape:groupmode="layer" id="SvgjsG1005" transform="translate(461.53405,-851.65939)">
    <path style="fill:#000000;stroke-width:0.264583" id="SvgjsPath1004" d=""></path>
    <path style="fill:#000000;stroke-width:0.264583" id="SvgjsPath1003" d=""></path>
    <text xml:space="preserve" style="font-size:4.23333px;line-height:125%;font-family:NanumMyeongjo;-inkscape-font-specification:NanumMyeongjo;letter-spacing:0px;word-spacing:0px;fill:none;stroke:#000000;stroke-width:0.264583px;stroke-linecap:butt;stroke-linejoin:miter;stroke-opacity:1" x="-250.71158" y="668.76953" id="SvgjsText1002" svgjs:data="{&quot;leading&quot;:&quot;1.3&quot;}"><tspan sodipodi:role="line" id="SvgjsTspan1001" style="stroke-width:0.264583px" x="-250.71158" y="668.76953" svgjs:data="{&quot;leading&quot;:&quot;1.3&quot;}"></tspan></text>
    <path id="SvgjsPath1000" style="vector-effect:none;fill:#126d82;fill-opacity:1;fill-rule:evenodd;stroke:none;stroke-width:4.433;stroke-linecap:butt;stroke-linejoin:miter;stroke-miterlimit:4;stroke-dasharray:none;stroke-dashoffset:0;stroke-opacity:1" d="m -436.04162,851.65939 v 0.91595 c 0.96107,0.84548 1.66181,1.94689 2.02041,3.17567 h -17.54738 c -3.11685,0 -5.68164,2.56482 -5.68164,5.68159 v 3.91192 c 0,3.11682 2.56479,5.68164 5.68164,5.68164 h 5.6851 4.69113 5.6878 c 1.21493,0 2.13344,0.91846 2.13344,2.13344 v 3.91632 c 0,1.21498 -0.91851,2.13346 -2.13344,2.13346 h -14.79076 c -0.75878,-2.29982 -2.93713,-3.97943 -5.47735,-3.97943 -3.16218,0 -5.76138,2.60267 -5.76138,5.76489 0,3.1622 2.5992,5.76399 5.76138,5.76399 2.54974,0 4.73517,-1.69176 5.48615,-4.00482 h 14.78196 c 3.1168,0 5.67808,-2.5613 5.67808,-5.67809 v -3.91632 c 0,-3.11677 -2.56128,-5.68164 -5.67808,-5.68164 h -5.6878 -4.69113 -5.6851 c -1.21497,0 -2.13609,-0.91837 -2.13609,-2.13344 v -3.91192 c 0,-1.21499 0.92112,-2.13696 2.13609,-2.13696 h 17.60609 c -0.33391,1.31874 -1.05865,2.50576 -2.07912,3.4053 v 0.68721 l 11.72877,-5.86483 z m -19.73105,27.11871 c 1.24555,0 2.21936,0.97116 2.21936,2.21674 0,1.24556 -0.97381,2.21936 -2.21936,2.21936 -1.24559,0 -2.21675,-0.9738 -2.21675,-2.21936 0,-1.24558 0.97116,-2.21674 2.21675,-2.21674 z" sodipodi:nodetypes="cccssssccsssscssscssssccsssscccccsssss"></path>
  </g>
</svg><style>@media (prefers-color-scheme: light) { :root { filter: none; } }
@media (prefers-color-scheme: dark) { :root { filter: contrast(0.7407407407407407) brightness(2); } }
</style></svg>